# xmcd CD database generated by RipIT
#
# Track frame offsets:
# 150
# 19695
# 41163
# 61440
# 77202
# 88981
# 96630
# 113658
# 123171
# 146307
# 157436
#
# Disc length: 2405 seconds
#
# Revision: 5
# Processed by: cddbd v1.5.2PL0 Copyright (c) Steve Scherf et al.
# Submitted via: RipIT 3.6.0 www.suwald.com/ripit/ripit.html on 2009-09-11 at 21:59
#
DISCID=9a09630b
DTITLE=Nils Landgren - Johan Norberg - Chapter 2
DYEAR=1993
DGENRE=Jazz
TTITLE0=Get here
TTITLE1=Song for Nils
TTITLE2=Killing me softly
TTITLE3=The red moped
TTITLE4=Moon shadow
TTITLE5=Like someone in love
TTITLE6=Everything happens to me
TTITLE7=Waltz for johanna
TTITLE8=Everything must change
TTITLE9=Morning song
TTITLE10=Birthday dance
EXTD=YEAR: 1993\n
EXTT0=
EXTT1=
EXTT2=
EXTT3=
EXTT4=
EXTT5=
EXTT6=
EXTT7=
EXTT8=
EXTT9=
EXTT10=
PLAYORDER=
